<svg xmlns="http://www.w3.org/2000/svg" viewBox="0 0 1600 1000" role="img" aria-labelledby="title desc">
<title id="title">Finance office document review</title>
<desc id="desc">Editorial illustration of dealership finance documents under review in a quiet office.</desc>
<defs>
  <linearGradient id="bg" x1="0" y1="0" x2="1" y2="1">
    <stop stop-color="#182737"/>
    <stop offset="1" stop-color="#2b3c50"/>
  </linearGradient>
  <linearGradient id="paper" x1="0" y1="0" x2="0" y2="1">
    <stop stop-color="#f2eee7"/>
    <stop offset="1" stop-color="#c9d3dc"/>
  </linearGradient>
  <filter id="shadow"><feDropShadow dx="0" dy="25" stdDeviation="22" flood-color="#07101a" flood-opacity=".45"/></filter>
</defs>
<rect width="1600" height="1000" fill="url(#bg)"/>
<path d="M0 185H1600" stroke="#8dc7ef" stroke-opacity=".12" stroke-width="2"/>
<path d="M0 420H1600" stroke="#8dc7ef" stroke-opacity=".08" stroke-width="2"/>
<rect y="610" width="1600" height="390" fill="#111b28"/>
<g filter="url(#shadow)">
  <rect x="235" y="230" width="520" height="620" rx="22" fill="url(#paper)" transform="rotate(-4 495 540)"/>
  <rect x="650" y="165" width="520" height="650" rx="22" fill="#e7e9e8" transform="rotate(5 910 490)"/>
  <rect x="930" y="300" width="390" height="540" rx="22" fill="#d7dfe5" transform="rotate(-7 1125 570)"/>
</g>
<g fill="#243244" opacity=".8">
  <rect x="305" y="315" width="335" height="28" rx="8"/>
  <rect x="305" y="377" width="380" height="14" rx="7"/>
  <rect x="305" y="415" width="340" height="14" rx="7"/>
  <rect x="305" y="453" width="360" height="14" rx="7"/>
  <rect x="305" y="540" width="380" height="90" rx="12" opacity=".25"/>
</g>
<g fill="#263648" opacity=".78" transform="rotate(5 910 490)">
  <rect x="730" y="255" width="330" height="26" rx="8"/>
  <rect x="730" y="318" width="390" height="14" rx="7"/>
  <rect x="730" y="356" width="355" height="14" rx="7"/>
  <rect x="730" y="394" width="370" height="14" rx="7"/>
</g>
<circle cx="1120" cy="520" r="88" fill="none" stroke="#d98a5e" stroke-width="16" opacity=".84"/>
<path d="M1070 520l34 34 70-82" fill="none" stroke="#d98a5e" stroke-width="18" stroke-linecap="round" stroke-linejoin="round"/>
<path d="M180 830C520 730 860 920 1430 770" fill="none" stroke="#8dc7ef" stroke-width="5" opacity=".72"/>
<circle cx="180" cy="830" r="9" fill="#d98a5e"/>
<circle cx="1430" cy="770" r="9" fill="#8dc7ef"/>
</svg>