<svg xmlns="http://www.w3.org/2000/svg" viewBox="0 0 1600 1000" role="img" aria-labelledby="title desc">
<title id="title">Service lane operations</title>
<desc id="desc">Editorial illustration of a dealership service lane with vehicles and operational signal markers.</desc>
<defs>
  <linearGradient id="wall" x1="0" y1="0" x2="1" y2="1">
    <stop stop-color="#1c2c3d"/>
    <stop offset="1" stop-color="#36495e"/>
  </linearGradient>
  <linearGradient id="floor" x1="0" y1="0" x2="0" y2="1">
    <stop stop-color="#26384a"/>
    <stop offset="1" stop-color="#111923"/>
  </linearGradient>
</defs>
<rect width="1600" height="1000" fill="#111923"/>
<rect width="1600" height="580" fill="url(#wall)"/>
<rect y="580" width="1600" height="420" fill="url(#floor)"/>
<g stroke="#b8c5d1" stroke-opacity=".18" fill="none" stroke-width="4">
  <rect x="100" y="160" width="420" height="420"/>
  <rect x="590" y="160" width="420" height="420"/>
  <rect x="1080" y="160" width="420" height="420"/>
</g>
<g fill="#d9e0e7" opacity=".82">
  <path d="M150 690c26-58 70-98 133-112h190c62 12 105 50 132 112l20 46H130Z"/>
  <path d="M605 716c26-58 70-98 133-112h190c62 12 105 50 132 112l20 46H585Z"/>
  <path d="M1080 676c24-53 65-90 122-103h175c57 11 98 47 123 103l18 43H1062Z"/>
</g>
<g fill="#111923">
  <rect x="192" y="708" width="372" height="45" rx="18"/>
  <rect x="647" y="734" width="372" height="45" rx="18"/>
  <rect x="1119" y="694" width="342" height="43" rx="18"/>
</g>
<g fill="#8dc7ef">
  <circle cx="320" cy="618" r="9"/>
  <circle cx="825" cy="644" r="9"/>
  <circle cx="1262" cy="603" r="9"/>
</g>
<g fill="#d98a5e">
  <circle cx="448" cy="640" r="9"/>
  <circle cx="946" cy="666" r="9"/>
</g>
<path d="M320 618C560 480 720 760 825 644S1090 430 1262 603" fill="none" stroke="#8dc7ef" stroke-width="4" stroke-dasharray="14 16" opacity=".8"/>
<path d="M448 640C720 500 810 790 946 666" fill="none" stroke="#d98a5e" stroke-width="4" opacity=".72"/>
<g fill="#f1f5f8" opacity=".8">
  <rect x="225" y="290" width="170" height="22" rx="11"/>
  <rect x="700" y="290" width="200" height="22" rx="11"/>
  <rect x="1170" y="290" width="190" height="22" rx="11"/>
</g>
</svg>